<?xml version="1.0" standalone="no"?><!DOCTYPE svg PUBLIC "-//W3C//DTD SVG 1.1//EN" "http://www.w3.org/Graphics/SVG/1.1/DTD/svg11.dtd"><svg t="1528197317008" class="icon" style="" viewBox="0 0 1024 1024" version="1.1" xmlns="http://www.w3.org/2000/svg" p-id="3985" xmlns:xlink="http://www.w3.org/1999/xlink" width="16" height="16"><defs><style type="text/css"></style></defs><path d="M736 896l-64 0-128 0-64 0-128 0-64 0-128 0L160 320l192 0L352 128l320 0 0 192 192 0 0 576L736 896zM800 384l-128 0-64 0L608 192l-192 0 0 192-64 0-128 0 0 192 576 0L800 384zM800 640l-576 0 0 192 64 0 0-128 64 0 0 128 128 0 0-128 64 0 0 128 128 0 0-128 64 0 0 128 64 0L800 640z" p-id="3986" fill="#7aa0e0"></path></svg>