<?xml version="1.0" standalone="no"?><!DOCTYPE svg PUBLIC "-//W3C//DTD SVG 1.1//EN" "http://www.w3.org/Graphics/SVG/1.1/DTD/svg11.dtd"><svg t="1528197268348" class="icon" style="" viewBox="0 0 1024 1024" version="1.1" xmlns="http://www.w3.org/2000/svg" p-id="3790" xmlns:xlink="http://www.w3.org/1999/xlink" width="16" height="16"><defs><style type="text/css"></style></defs><path d="M850.431919 311.413566H690.596608v-54.289464c0-52.842509-42.99114-95.832625-95.832626-95.832626H419.2332c-52.842509 0-95.832625 42.990117-95.832626 95.832626v54.289464H173.567058c-16.954137 0-30.699186 13.744026-30.699186 30.699186s13.745049 30.699186 30.699186 30.699186h676.864861c16.954137 0 30.699186-13.744026 30.699186-30.699186s-13.744026-30.699186-30.699186-30.699186zM384.797923 257.124102c0-18.987447 15.44783-34.434254 34.434254-34.434254h175.530782c18.987447 0 34.434254 15.446807 34.434253 34.434254v54.289464H384.797923v-54.289464zM445.521936 706.32994V543.42471c0-16.954137-13.745049-30.699186-30.699186-30.699186s-30.699186 13.745049-30.699186 30.699186V706.32994c0 16.954137 13.745049 30.699186 30.699186 30.699186s30.699186-13.744026 30.699186-30.699186zM635.689067 706.32994V543.42471c0-16.954137-13.745049-30.699186-30.699186-30.699186s-30.699186 13.745049-30.699186 30.699186V706.32994c0 16.954137 13.745049 30.699186 30.699186 30.699186s30.699186-13.744026 30.699186-30.699186z" p-id="3791" fill="#7aa0e0"></path><path d="M778.558985 447.303512c-16.515139 0-29.979802 13.043061-30.66644 29.390378h-0.032746v284.21511c0 23.058159-18.759249 41.817408-41.818431 41.817407H317.958632c-23.059182 0-41.818431-18.759249-41.818431-41.817407V476.692866h-0.032746c-0.686638-16.346293-14.150278-29.390377-30.66644-29.390377s-29.979802 13.043061-30.66644 29.390377h-0.032746v284.21511c0 56.913221 46.303582 103.21578 103.216803 103.21578h388.082736c56.914244 0 103.216803-46.302559 103.216803-103.21578V476.692866h-0.032746c-0.686638-16.346293-14.150278-29.389354-30.66644-29.389354z" p-id="3792" fill="#7aa0e0"></path></svg>