<?xml version="1.0" standalone="no"?><!DOCTYPE svg PUBLIC "-//W3C//DTD SVG 1.1//EN" "http://www.w3.org/Graphics/SVG/1.1/DTD/svg11.dtd"><svg t="1528199926507" class="icon" style="" viewBox="0 0 1024 1024" version="1.1" xmlns="http://www.w3.org/2000/svg" p-id="4726" xmlns:xlink="http://www.w3.org/1999/xlink" width="16" height="16"><defs><style type="text/css"></style></defs><path d="M788.1 292.7c-4.4-9.2-12.8-15.8-22.8-17.8-9.9-2.1-20.3 0.6-28 7.3L431.9 547.5c-1.3 1.1-3.2 1-4.4-0.2L318.6 435.1c-7.2-7.5-17.6-11-27.9-9.6-10.3 1.5-19.3 7.7-24.2 16.9L235.1 501c-6.2 11.5-4.8 25.7 3.4 35.8l163.6 202.3c6.2 7.7 15.5 12.1 25.3 12.1 9.9 0 19.2-4.5 25.3-12.2L784 327.2c8.1-9.7 9.6-23.2 4.1-34.5z m0 0" p-id="4727" fill="#38527d"></path></svg>